<?xml version="1.0" encoding="utf-8"?>
<!-- Generator: Adobe Illustrator 26.0.1, SVG Export Plug-In . SVG Version: 6.00 Build 0)  -->
<svg version="1.1" id="Layer_1" xmlns="http://www.w3.org/2000/svg" xmlns:xlink="http://www.w3.org/1999/xlink" x="0px" y="0px"
	 viewBox="0 0 500 500" style="enable-background:new 0 0 500 500;" xml:space="preserve">
<style type="text/css">
	.st0{fill:#231F20;}
</style>
<g>
	<path class="st0" d="M281.3,455.4L281.3,455.4c-47.4,0-85.7-38.5-85.7-85.8c0-22.7,9-44.5,25.1-60.5l146.4-146.4v207
		c0,22.7-9,44.6-25.1,60.6l0,0c-7.9,8-17.4,14.4-27.8,18.7c-10.4,4.3-21.6,6.5-32.8,6.5V455.4z"/>
	<path class="st0" d="M130.2,304.2c-47.4,0-85.8-38.4-85.8-85.8v0l0,0c0.1-22.7,9.1-44.5,25.1-60.6l0,0
		c16.1-16.1,37.9-25.1,60.6-25.1h207L190.8,279.1C174.7,295.2,152.9,304.3,130.2,304.2L130.2,304.2z"/>
	<path class="st0" d="M405.3,167.6c-11.4-11.6-11.2-30.1,0.3-41.5c11.6-11.4,30.1-11.2,41.5,0.3c11.2,11.4,11.2,29.7,0,41.2
		C435.6,179.1,416.9,179.1,405.3,167.6z"/>
	<path class="st0" d="M332.1,94.4c-11.4-11.6-11.2-30.1,0.3-41.5c11.6-11.4,30.1-11.2,41.5,0.3c11.2,11.4,11.2,29.7,0,41.2
		C362.4,105.9,343.7,105.9,332.1,94.4z"/>
</g>
</svg>
